<?xml version="1.0" encoding="iso-8859-1"?>

<!DOCTYPE svg PUBLIC "-//W3C//DTD SVG 1.1//EN" "http://www.w3.org/Graphics/SVG/1.1/DTD/svg11.dtd">
<!-- Uploaded to: SVG Repo, www.svgrepo.com, Generator: SVG Repo Mixer Tools -->
<svg version="1.1" id="_x34_" xmlns="http://www.w3.org/2000/svg" xmlns:xlink="http://www.w3.org/1999/xlink" 
	 viewBox="0 0 512 512"  xml:space="preserve">
<g>
	<g>
		<g>
			<rect y="31.74" style="fill:#EDEDEC;" width="512" height="424.957"/>
			<g>
				<g>
					<g>
						<path style="fill:#141616;" d="M133.834,251.897v201.26c0,1.951-1.596,3.547-3.547,3.547h-10.287
							c-1.951,0-3.547-1.596-3.547-3.547v-201.26H133.834z"/>
						<polygon style="opacity:0.1;fill:#040000;" points="148.563,302.831 148.563,302.972 133.834,302.972 133.834,323.405 
							116.452,323.405 116.452,302.972 107.179,302.972 107.179,302.831 						"/>
					</g>
					<g>
						<path style="fill:#141616;" d="M170.853,22.033v265.494c0,2.625-0.592,5.108-1.631,7.279
							c-0.126,0.255-0.252,0.511-0.391,0.759c-0.057,0.121-0.126,0.234-0.195,0.348c-0.101,0.177-0.202,0.348-0.315,0.518
							c-0.031,0.064-0.076,0.121-0.113,0.184c-0.076,0.113-0.151,0.234-0.233,0.348c-0.22,0.326-0.453,0.639-0.705,0.944
							c-0.132,0.17-0.271,0.333-0.416,0.497c-0.025,0.028-0.057,0.064-0.082,0.092c-0.139,0.156-0.283,0.305-0.428,0.454
							c-0.655,0.674-1.373,1.277-2.135,1.795c-0.176,0.128-0.359,0.241-0.548,0.355c-0.157,0.099-0.321,0.199-0.485,0.284
							c-0.434,0.248-0.875,0.461-1.335,0.646c-0.202,0.085-0.403,0.163-0.611,0.241c-0.403,0.142-0.819,0.262-1.234,0.362
							c-0.095,0.028-0.195,0.05-0.29,0.064c-0.151,0.035-0.302,0.064-0.46,0.092c-0.013,0.007-0.025,0.007-0.038,0.007
							c-0.202,0.035-0.41,0.064-0.617,0.092c-0.044,0.007-0.088,0.007-0.132,0.014c-0.202,0.021-0.41,0.035-0.617,0.05
							c-0.227,0.014-0.466,0.021-0.699,0.021H98.599c-0.233,0-0.472-0.007-0.699-0.021c-0.208-0.014-0.416-0.028-0.617-0.05
							c-0.044-0.007-0.088-0.007-0.132-0.014c-0.208-0.028-0.416-0.057-0.617-0.092c-0.013,0-0.025,0-0.038-0.007
							c-0.158-0.028-0.309-0.057-0.46-0.092c-0.094-0.014-0.195-0.035-0.29-0.064c-0.416-0.099-0.831-0.22-1.234-0.362
							c-0.208-0.078-0.409-0.156-0.611-0.241c-0.46-0.185-0.9-0.397-1.335-0.646c-0.164-0.085-0.327-0.185-0.485-0.284
							c-0.189-0.114-0.372-0.227-0.548-0.355c-0.762-0.518-1.48-1.121-2.135-1.795c-0.145-0.149-0.29-0.298-0.428-0.454
							c-0.025-0.028-0.057-0.064-0.076-0.092c-0.151-0.163-0.29-0.326-0.422-0.497c-0.252-0.305-0.485-0.617-0.705-0.944
							c-0.082-0.113-0.157-0.234-0.233-0.348c-0.038-0.064-0.082-0.121-0.113-0.184c-0.114-0.17-0.214-0.341-0.315-0.518
							c-0.069-0.114-0.139-0.227-0.195-0.348c-0.138-0.248-0.265-0.504-0.39-0.759c-1.039-2.171-1.631-4.654-1.631-7.279V22.033
							H170.853z"/>
						<path style="fill:#1D2021;" d="M169.222,294.806c-0.126,0.255-0.252,0.511-0.391,0.759c-0.057,0.121-0.126,0.234-0.195,0.348
							c-0.101,0.177-0.202,0.348-0.315,0.518c-0.031,0.064-0.076,0.121-0.113,0.184c-0.076,0.113-0.151,0.234-0.233,0.348
							c-0.22,0.326-0.453,0.639-0.705,0.944c-0.132,0.17-0.271,0.333-0.416,0.497c-0.025,0.028-0.057,0.064-0.082,0.092
							c-0.139,0.156-0.283,0.305-0.428,0.454c-0.655,0.674-1.373,1.277-2.135,1.795c-0.176,0.128-0.359,0.241-0.548,0.355
							c-0.157,0.099-0.321,0.199-0.485,0.284c-0.434,0.248-0.875,0.461-1.335,0.646c-0.202,0.085-0.403,0.163-0.611,0.241
							c-0.403,0.142-0.819,0.262-1.234,0.362c-0.095,0.028-0.195,0.05-0.29,0.064c-0.151,0.035-0.302,0.064-0.46,0.092
							c-0.013,0.007-0.025,0.007-0.038,0.007c-0.202,0.035-0.41,0.064-0.617,0.092c-0.044,0.007-0.088,0.007-0.132,0.014
							c-0.202,0.021-0.41,0.035-0.617,0.05c-0.227,0.014-0.466,0.021-0.699,0.021H98.599c-0.233,0-0.472-0.007-0.699-0.021
							c-0.208-0.014-0.416-0.028-0.617-0.05c-0.044-0.007-0.088-0.007-0.132-0.014c-0.208-0.028-0.416-0.057-0.617-0.092
							c-0.013,0-0.025,0-0.038-0.007c-0.158-0.028-0.309-0.057-0.46-0.092c-0.094-0.014-0.195-0.035-0.29-0.064
							c-0.416-0.099-0.831-0.22-1.234-0.362c-0.208-0.078-0.409-0.156-0.611-0.241c-0.46-0.185-0.9-0.397-1.335-0.646
							c-0.164-0.085-0.327-0.185-0.485-0.284c-0.189-0.114-0.372-0.227-0.548-0.355c-0.762-0.518-1.48-1.121-2.135-1.795
							c-0.145-0.149-0.29-0.298-0.428-0.454c-0.025-0.028-0.057-0.064-0.076-0.092c-0.151-0.163-0.29-0.326-0.422-0.497
							c-0.252-0.305-0.485-0.617-0.705-0.944c-0.082-0.113-0.157-0.234-0.233-0.348c-0.038-0.064-0.082-0.121-0.113-0.184
							c-0.114-0.17-0.214-0.341-0.315-0.518c-0.069-0.114-0.139-0.227-0.195-0.348c-0.138-0.248-0.265-0.504-0.39-0.759
							l10.87-54.552c0-8.492,6.166-15.445,13.71-15.445h33.542c7.545,0,13.71,6.953,13.71,15.445L169.222,294.806z"/>
						<g>
							<rect x="101.476" y="24.164" style="fill:#1D2021;" width="1.679" height="196.604"/>
							<rect x="151.859" y="24.164" style="fill:#1D2021;" width="1.679" height="196.604"/>
						</g>
					</g>
				</g>
				<g>
					<g>
						<path style="fill:#141616;" d="M261.963,251.897v201.26c0,1.951-1.596,3.547-3.547,3.547h-10.287
							c-1.951,0-3.547-1.596-3.547-3.547v-201.26H261.963z"/>
						<polygon style="opacity:0.1;fill:#040000;" points="276.692,302.831 276.692,302.972 261.963,302.972 261.963,323.405 
							244.581,323.405 244.581,302.972 235.308,302.972 235.308,302.831 						"/>
					</g>
					<g>
						<path style="fill:#141616;" d="M298.982,22.033v265.494c0,2.625-0.592,5.108-1.631,7.279
							c-0.126,0.255-0.252,0.511-0.391,0.759c-0.057,0.121-0.126,0.234-0.195,0.348c-0.101,0.177-0.202,0.348-0.315,0.518
							c-0.032,0.064-0.076,0.121-0.113,0.184c-0.076,0.113-0.151,0.234-0.233,0.348c-0.221,0.326-0.454,0.639-0.706,0.944
							c-0.132,0.17-0.271,0.333-0.416,0.497c-0.025,0.028-0.057,0.064-0.082,0.092c-0.138,0.156-0.283,0.305-0.428,0.454
							c-0.655,0.674-1.373,1.277-2.135,1.795c-0.176,0.128-0.359,0.241-0.548,0.355c-0.157,0.099-0.321,0.199-0.485,0.284
							c-0.435,0.248-0.875,0.461-1.335,0.646c-0.202,0.085-0.403,0.163-0.611,0.241c-0.403,0.142-0.819,0.262-1.234,0.362
							c-0.095,0.028-0.195,0.05-0.29,0.064c-0.151,0.035-0.302,0.064-0.46,0.092c-0.013,0.007-0.025,0.007-0.038,0.007
							c-0.202,0.035-0.409,0.064-0.617,0.092c-0.044,0.007-0.088,0.007-0.132,0.014c-0.202,0.021-0.41,0.035-0.617,0.05
							c-0.227,0.014-0.466,0.021-0.699,0.021h-58.544c-0.233,0-0.472-0.007-0.699-0.021c-0.208-0.014-0.416-0.028-0.617-0.05
							c-0.044-0.007-0.088-0.007-0.132-0.014c-0.208-0.028-0.416-0.057-0.617-0.092c-0.013,0-0.025,0-0.038-0.007
							c-0.158-0.028-0.309-0.057-0.46-0.092c-0.094-0.014-0.195-0.035-0.29-0.064c-0.416-0.099-0.831-0.22-1.234-0.362
							c-0.208-0.078-0.409-0.156-0.611-0.241c-0.46-0.185-0.9-0.397-1.335-0.646c-0.164-0.085-0.327-0.185-0.485-0.284
							c-0.189-0.114-0.372-0.227-0.548-0.355c-0.762-0.518-1.48-1.121-2.135-1.795c-0.145-0.149-0.29-0.298-0.428-0.454
							c-0.025-0.028-0.057-0.064-0.076-0.092c-0.151-0.163-0.29-0.326-0.422-0.497c-0.252-0.305-0.485-0.617-0.705-0.944
							c-0.082-0.113-0.157-0.234-0.233-0.348c-0.038-0.064-0.082-0.121-0.113-0.184c-0.113-0.17-0.214-0.341-0.315-0.518
							c-0.069-0.114-0.139-0.227-0.195-0.348c-0.139-0.248-0.265-0.504-0.391-0.759c-1.039-2.171-1.631-4.654-1.631-7.279V22.033
							H298.982z"/>
						<path style="fill:#1D2021;" d="M297.351,294.806c-0.126,0.255-0.252,0.511-0.391,0.759c-0.057,0.121-0.126,0.234-0.195,0.348
							c-0.101,0.177-0.202,0.348-0.315,0.518c-0.032,0.064-0.076,0.121-0.113,0.184c-0.076,0.113-0.151,0.234-0.233,0.348
							c-0.221,0.326-0.454,0.639-0.706,0.944c-0.132,0.17-0.271,0.333-0.416,0.497c-0.025,0.028-0.057,0.064-0.082,0.092
							c-0.138,0.156-0.283,0.305-0.428,0.454c-0.655,0.674-1.373,1.277-2.135,1.795c-0.176,0.128-0.359,0.241-0.548,0.355
							c-0.157,0.099-0.321,0.199-0.485,0.284c-0.435,0.248-0.875,0.461-1.335,0.646c-0.202,0.085-0.403,0.163-0.611,0.241
							c-0.403,0.142-0.819,0.262-1.234,0.362c-0.095,0.028-0.195,0.05-0.29,0.064c-0.151,0.035-0.302,0.064-0.46,0.092
							c-0.013,0.007-0.025,0.007-0.038,0.007c-0.202,0.035-0.409,0.064-0.617,0.092c-0.044,0.007-0.088,0.007-0.132,0.014
							c-0.202,0.021-0.41,0.035-0.617,0.05c-0.227,0.014-0.466,0.021-0.699,0.021h-58.544c-0.233,0-0.472-0.007-0.699-0.021
							c-0.208-0.014-0.416-0.028-0.617-0.05c-0.044-0.007-0.088-0.007-0.132-0.014c-0.208-0.028-0.416-0.057-0.617-0.092
							c-0.013,0-0.025,0-0.038-0.007c-0.158-0.028-0.309-0.057-0.46-0.092c-0.094-0.014-0.195-0.035-0.29-0.064
							c-0.416-0.099-0.831-0.22-1.234-0.362c-0.208-0.078-0.409-0.156-0.611-0.241c-0.46-0.185-0.9-0.397-1.335-0.646
							c-0.164-0.085-0.327-0.185-0.485-0.284c-0.189-0.114-0.372-0.227-0.548-0.355c-0.762-0.518-1.48-1.121-2.135-1.795
							c-0.145-0.149-0.29-0.298-0.428-0.454c-0.025-0.028-0.057-0.064-0.076-0.092c-0.151-0.163-0.29-0.326-0.422-0.497
							c-0.252-0.305-0.485-0.617-0.705-0.944c-0.082-0.113-0.157-0.234-0.233-0.348c-0.038-0.064-0.082-0.121-0.113-0.184
							c-0.113-0.17-0.214-0.341-0.315-0.518c-0.069-0.114-0.139-0.227-0.195-0.348c-0.139-0.248-0.265-0.504-0.391-0.759
							l10.87-54.552c0-8.492,6.166-15.445,13.71-15.445h33.542c7.545,0,13.71,6.953,13.71,15.445L297.351,294.806z"/>
						<g>
							<rect x="229.606" y="24.164" style="fill:#1D2021;" width="1.679" height="196.604"/>
							<rect x="279.988" y="24.164" style="fill:#1D2021;" width="1.679" height="196.604"/>
						</g>
					</g>
				</g>
				<g>
					<g>
						<path style="fill:#141616;" d="M390.092,251.897v201.26c0,1.951-1.596,3.547-3.547,3.547h-10.287
							c-1.951,0-3.547-1.596-3.547-3.547v-201.26H390.092z"/>
						<polygon style="opacity:0.1;fill:#040000;" points="404.821,302.831 404.821,302.972 390.092,302.972 390.092,323.405 
							372.71,323.405 372.71,302.972 363.437,302.972 363.437,302.831 						"/>
					</g>
					<g>
						<path style="fill:#141616;" d="M427.112,22.033v265.494c0,2.625-0.592,5.108-1.631,7.279
							c-0.126,0.255-0.252,0.511-0.391,0.759c-0.057,0.121-0.126,0.234-0.195,0.348c-0.101,0.177-0.202,0.348-0.315,0.518
							c-0.031,0.064-0.076,0.121-0.113,0.184c-0.076,0.113-0.151,0.234-0.233,0.348c-0.22,0.326-0.453,0.639-0.706,0.944
							c-0.132,0.17-0.271,0.333-0.416,0.497c-0.025,0.028-0.057,0.064-0.082,0.092c-0.139,0.156-0.283,0.305-0.428,0.454
							c-0.655,0.674-1.373,1.277-2.135,1.795c-0.176,0.128-0.359,0.241-0.548,0.355c-0.157,0.099-0.321,0.199-0.485,0.284
							c-0.435,0.248-0.875,0.461-1.335,0.646c-0.202,0.085-0.403,0.163-0.611,0.241c-0.403,0.142-0.819,0.262-1.234,0.362
							c-0.095,0.028-0.195,0.05-0.29,0.064c-0.151,0.035-0.302,0.064-0.46,0.092c-0.013,0.007-0.025,0.007-0.038,0.007
							c-0.202,0.035-0.41,0.064-0.617,0.092c-0.044,0.007-0.088,0.007-0.132,0.014c-0.202,0.021-0.409,0.035-0.617,0.05
							c-0.227,0.014-0.466,0.021-0.699,0.021h-58.544c-0.233,0-0.472-0.007-0.699-0.021c-0.208-0.014-0.416-0.028-0.617-0.05
							c-0.044-0.007-0.088-0.007-0.132-0.014c-0.208-0.028-0.416-0.057-0.617-0.092c-0.013,0-0.025,0-0.038-0.007
							c-0.158-0.028-0.309-0.057-0.46-0.092c-0.094-0.014-0.195-0.035-0.29-0.064c-0.416-0.099-0.831-0.22-1.234-0.362
							c-0.208-0.078-0.409-0.156-0.611-0.241c-0.46-0.185-0.901-0.397-1.335-0.646c-0.164-0.085-0.327-0.185-0.485-0.284
							c-0.189-0.114-0.372-0.227-0.548-0.355c-0.762-0.518-1.48-1.121-2.135-1.795c-0.145-0.149-0.29-0.298-0.428-0.454
							c-0.025-0.028-0.057-0.064-0.076-0.092c-0.151-0.163-0.29-0.326-0.422-0.497c-0.252-0.305-0.485-0.617-0.705-0.944
							c-0.082-0.113-0.158-0.234-0.233-0.348c-0.038-0.064-0.082-0.121-0.113-0.184c-0.113-0.17-0.214-0.341-0.315-0.518
							c-0.069-0.114-0.139-0.227-0.195-0.348c-0.138-0.248-0.265-0.504-0.391-0.759c-1.039-2.171-1.631-4.654-1.631-7.279V22.033
							H427.112z"/>
						<path style="fill:#1D2021;" d="M425.48,294.806c-0.126,0.255-0.252,0.511-0.391,0.759c-0.057,0.121-0.126,0.234-0.195,0.348
							c-0.101,0.177-0.202,0.348-0.315,0.518c-0.031,0.064-0.076,0.121-0.113,0.184c-0.076,0.113-0.151,0.234-0.233,0.348
							c-0.22,0.326-0.453,0.639-0.706,0.944c-0.132,0.17-0.271,0.333-0.416,0.497c-0.025,0.028-0.057,0.064-0.082,0.092
							c-0.139,0.156-0.283,0.305-0.428,0.454c-0.655,0.674-1.373,1.277-2.135,1.795c-0.176,0.128-0.359,0.241-0.548,0.355
							c-0.157,0.099-0.321,0.199-0.485,0.284c-0.435,0.248-0.875,0.461-1.335,0.646c-0.202,0.085-0.403,0.163-0.611,0.241
							c-0.403,0.142-0.819,0.262-1.234,0.362c-0.095,0.028-0.195,0.05-0.29,0.064c-0.151,0.035-0.302,0.064-0.46,0.092
							c-0.013,0.007-0.025,0.007-0.038,0.007c-0.202,0.035-0.41,0.064-0.617,0.092c-0.044,0.007-0.088,0.007-0.132,0.014
							c-0.202,0.021-0.409,0.035-0.617,0.05c-0.227,0.014-0.466,0.021-0.699,0.021h-58.544c-0.233,0-0.472-0.007-0.699-0.021
							c-0.208-0.014-0.416-0.028-0.617-0.05c-0.044-0.007-0.088-0.007-0.132-0.014c-0.208-0.028-0.416-0.057-0.617-0.092
							c-0.013,0-0.025,0-0.038-0.007c-0.158-0.028-0.309-0.057-0.46-0.092c-0.094-0.014-0.195-0.035-0.29-0.064
							c-0.416-0.099-0.831-0.22-1.234-0.362c-0.208-0.078-0.409-0.156-0.611-0.241c-0.46-0.185-0.901-0.397-1.335-0.646
							c-0.164-0.085-0.327-0.185-0.485-0.284c-0.189-0.114-0.372-0.227-0.548-0.355c-0.762-0.518-1.48-1.121-2.135-1.795
							c-0.145-0.149-0.29-0.298-0.428-0.454c-0.025-0.028-0.057-0.064-0.076-0.092c-0.151-0.163-0.29-0.326-0.422-0.497
							c-0.252-0.305-0.485-0.617-0.705-0.944c-0.082-0.113-0.158-0.234-0.233-0.348c-0.038-0.064-0.082-0.121-0.113-0.184
							c-0.113-0.17-0.214-0.341-0.315-0.518c-0.069-0.114-0.139-0.227-0.195-0.348c-0.138-0.248-0.265-0.504-0.391-0.759
							l10.87-54.552c0-8.492,6.166-15.445,13.71-15.445H400.9c7.545,0,13.71,6.953,13.71,15.445L425.48,294.806z"/>
						<g>
							<rect x="357.735" y="24.164" style="fill:#1D2021;" width="1.679" height="196.604"/>
							<rect x="408.117" y="24.164" style="fill:#1D2021;" width="1.679" height="196.604"/>
						</g>
					</g>
				</g>
			</g>
		</g>
		<g>
			<rect y="9.698" style="fill:#FFFFFF;" width="512" height="409.087"/>
			<g>
				<g>
					<g>
						<rect x="116.452" y="229.856" style="fill:#3D4347;" width="17.382" height="188.903"/>
						<polygon style="opacity:0.1;fill:#040000;" points="148.563,280.789 148.563,280.931 133.834,280.931 133.834,301.364 
							116.452,301.364 116.452,280.931 107.179,280.931 107.179,280.789 						"/>
					</g>
					<g>
						<path style="fill:#3D4347;" d="M170.88,0v265.458c0,2.645-0.641,5.13-1.683,7.293c-0.08,0.241-0.24,0.561-0.401,0.802
							c0,0.08-0.08,0.24-0.16,0.321c-0.08,0.16-0.241,0.321-0.321,0.481c0,0.08-0.08,0.161-0.08,0.241
							c-0.08,0.08-0.16,0.24-0.24,0.32c-0.241,0.321-0.481,0.641-0.722,0.962c-0.16,0.16-0.24,0.321-0.401,0.481
							c-0.08,0-0.08,0.08-0.08,0.08c-0.16,0.16-0.32,0.32-0.481,0.481c-0.16,0.16-0.32,0.321-0.561,0.481
							c-0.481,0.481-0.962,0.962-1.523,1.283c-0.16,0.16-0.401,0.24-0.561,0.401c-0.16,0.08-0.32,0.16-0.481,0.24
							c-0.481,0.241-0.882,0.481-1.362,0.641c-0.16,0.08-0.401,0.16-0.561,0.241c-0.401,0.16-0.882,0.32-1.282,0.401
							c-0.08,0-0.16,0-0.241,0.08c-0.16,0-0.32,0-0.481,0.08c0,0,0,0-0.08,0c-0.16,0-0.401,0.08-0.561,0.08c-0.08,0-0.08,0-0.16,0
							c-0.16,0-0.401,0.08-0.641,0.08H97.864c-0.16,0-0.401-0.08-0.561-0.08c-0.08,0-0.08,0-0.16,0c-0.16,0-0.401-0.08-0.641-0.08
							c-0.16-0.08-0.321-0.08-0.481-0.08c-0.08-0.08-0.16-0.08-0.24-0.08c-0.481-0.08-0.882-0.241-1.282-0.401
							c-0.16-0.08-0.401-0.16-0.561-0.241c-0.481-0.16-0.962-0.401-1.363-0.641c-0.16-0.08-0.321-0.16-0.481-0.24
							c-0.24-0.16-0.401-0.241-0.561-0.401c-0.561-0.321-1.122-0.802-1.603-1.203c-0.16-0.24-0.401-0.401-0.561-0.561
							c-0.08-0.16-0.241-0.32-0.401-0.481l-0.08-0.08c-0.16-0.16-0.321-0.32-0.401-0.481c-0.241-0.32-0.481-0.641-0.722-0.962
							c-0.08-0.08-0.16-0.24-0.241-0.32c0-0.08-0.08-0.16-0.08-0.241c-0.16-0.16-0.241-0.32-0.321-0.481
							c-0.08-0.08-0.16-0.24-0.24-0.321c-0.08-0.241-0.241-0.561-0.401-0.802c-1.042-2.164-1.603-4.648-1.603-7.293V0H170.88z"/>
						<path style="fill:#4F5559;" d="M169.222,272.765c-0.126,0.255-0.252,0.511-0.391,0.759c-0.057,0.121-0.126,0.234-0.195,0.348
							c-0.101,0.177-0.202,0.348-0.315,0.518c-0.031,0.064-0.076,0.121-0.113,0.184c-0.076,0.114-0.151,0.234-0.233,0.348
							c-0.22,0.326-0.453,0.639-0.705,0.944c-0.132,0.17-0.271,0.333-0.416,0.497c-0.025,0.028-0.057,0.064-0.082,0.092
							c-0.139,0.156-0.283,0.305-0.428,0.454c-0.655,0.674-1.373,1.277-2.135,1.795c-0.176,0.128-0.359,0.241-0.548,0.355
							c-0.157,0.099-0.321,0.199-0.485,0.284c-0.434,0.248-0.875,0.461-1.335,0.646c-0.202,0.085-0.403,0.163-0.611,0.241
							c-0.403,0.142-0.819,0.263-1.234,0.362c-0.095,0.028-0.195,0.05-0.29,0.064c-0.151,0.035-0.302,0.064-0.46,0.092
							c-0.013,0.007-0.025,0.007-0.038,0.007c-0.202,0.036-0.41,0.064-0.617,0.092c-0.044,0.007-0.088,0.007-0.132,0.014
							c-0.202,0.021-0.41,0.035-0.617,0.05c-0.227,0.014-0.466,0.021-0.699,0.021H98.599c-0.233,0-0.472-0.007-0.699-0.021
							c-0.208-0.014-0.416-0.028-0.617-0.05c-0.044-0.007-0.088-0.007-0.132-0.014c-0.208-0.028-0.416-0.057-0.617-0.092
							c-0.013,0-0.025,0-0.038-0.007c-0.158-0.028-0.309-0.057-0.46-0.092c-0.094-0.014-0.195-0.036-0.29-0.064
							c-0.416-0.099-0.831-0.22-1.234-0.362c-0.208-0.078-0.409-0.156-0.611-0.241c-0.46-0.184-0.9-0.397-1.335-0.646
							c-0.164-0.085-0.327-0.184-0.485-0.284c-0.189-0.114-0.372-0.227-0.548-0.355c-0.762-0.518-1.48-1.121-2.135-1.795
							c-0.145-0.149-0.29-0.298-0.428-0.454c-0.025-0.028-0.057-0.064-0.076-0.092c-0.151-0.163-0.29-0.326-0.422-0.497
							c-0.252-0.305-0.485-0.617-0.705-0.944c-0.082-0.113-0.157-0.234-0.233-0.348c-0.038-0.064-0.082-0.121-0.113-0.184
							c-0.114-0.17-0.214-0.341-0.315-0.518c-0.069-0.113-0.139-0.227-0.195-0.348c-0.138-0.248-0.265-0.504-0.39-0.759
							l10.87-54.552c0-8.493,6.166-15.445,13.71-15.445h33.542c7.545,0,13.71,6.953,13.71,15.445L169.222,272.765z"/>
						<g>
							<rect x="101.476" y="2.122" style="fill:#4F5559;" width="1.679" height="196.604"/>
							<rect x="151.859" y="2.122" style="fill:#4F5559;" width="1.679" height="196.604"/>
						</g>
					</g>
				</g>
				<g>
					<g>
						<rect x="244.581" y="229.856" style="fill:#3D4347;" width="17.382" height="188.903"/>
						<polygon style="opacity:0.1;fill:#040000;" points="276.692,280.789 276.692,280.931 261.963,280.931 261.963,301.364 
							244.581,301.364 244.581,280.931 235.308,280.931 235.308,280.789 						"/>
					</g>
					<g>
						<path style="fill:#3D4347;" d="M298.96,0v265.458c0,2.645-0.561,5.13-1.603,7.293c-0.16,0.241-0.241,0.561-0.401,0.802
							c-0.08,0.08-0.16,0.24-0.16,0.321c-0.16,0.16-0.241,0.321-0.321,0.481c-0.08,0.08-0.08,0.161-0.16,0.241
							c-0.08,0.08-0.16,0.24-0.241,0.32c-0.16,0.321-0.401,0.641-0.641,0.962c-0.16,0.16-0.32,0.321-0.481,0.481
							c0,0,0,0.08-0.08,0.08c-0.08,0.16-0.241,0.32-0.401,0.481c-0.16,0.16-0.32,0.321-0.561,0.561
							c-0.481,0.401-1.042,0.882-1.603,1.203c-0.16,0.16-0.321,0.24-0.481,0.401c-0.16,0.08-0.321,0.16-0.561,0.24
							c-0.401,0.241-0.802,0.481-1.283,0.641c-0.24,0.08-0.401,0.16-0.641,0.241c-0.401,0.16-0.802,0.32-1.203,0.401
							c-0.08,0-0.241,0-0.32,0.08c-0.16,0-0.321,0-0.481,0.08c-0.241,0-0.401,0.08-0.641,0.08h-0.08c-0.241,0-0.401,0.08-0.641,0.08
							h-59.952c-0.241,0-0.401-0.08-0.641-0.08h-0.08c-0.24,0-0.401-0.08-0.641-0.08c-0.16-0.08-0.321-0.08-0.481-0.08
							c-0.08-0.08-0.241-0.08-0.321-0.08c-0.401-0.08-0.801-0.241-1.202-0.401c-0.241-0.08-0.401-0.16-0.641-0.241
							c-0.481-0.16-0.882-0.401-1.282-0.641c-0.241-0.08-0.401-0.16-0.561-0.24c-0.161-0.16-0.321-0.241-0.481-0.401
							c-0.561-0.321-1.122-0.802-1.603-1.203c-0.241-0.24-0.401-0.401-0.561-0.561c-0.161-0.16-0.321-0.32-0.401-0.481
							c-0.08,0-0.08-0.08-0.08-0.08c-0.16-0.16-0.32-0.32-0.481-0.481c-0.241-0.32-0.481-0.641-0.641-0.962
							c-0.08-0.08-0.161-0.24-0.24-0.32c-0.08-0.08-0.08-0.16-0.16-0.241c-0.08-0.16-0.161-0.32-0.32-0.481
							c0-0.08-0.08-0.24-0.161-0.321c-0.16-0.241-0.241-0.561-0.401-0.802c-0.321-0.721-0.641-1.443-0.882-2.164
							c-0.481-1.603-0.721-3.366-0.721-5.13V0H298.96z"/>
						<path style="fill:#4F5559;" d="M297.351,272.765c-0.126,0.255-0.252,0.511-0.391,0.759c-0.057,0.121-0.126,0.234-0.195,0.348
							c-0.101,0.177-0.202,0.348-0.315,0.518c-0.032,0.064-0.076,0.121-0.113,0.184c-0.076,0.114-0.151,0.234-0.233,0.348
							c-0.221,0.326-0.454,0.639-0.706,0.944c-0.132,0.17-0.271,0.333-0.416,0.497c-0.025,0.028-0.057,0.064-0.082,0.092
							c-0.138,0.156-0.283,0.305-0.428,0.454c-0.655,0.674-1.373,1.277-2.135,1.795c-0.176,0.128-0.359,0.241-0.548,0.355
							c-0.157,0.099-0.321,0.199-0.485,0.284c-0.435,0.248-0.875,0.461-1.335,0.646c-0.202,0.085-0.403,0.163-0.611,0.241
							c-0.403,0.142-0.819,0.263-1.234,0.362c-0.095,0.028-0.195,0.05-0.29,0.064c-0.151,0.035-0.302,0.064-0.46,0.092
							c-0.013,0.007-0.025,0.007-0.038,0.007c-0.202,0.036-0.409,0.064-0.617,0.092c-0.044,0.007-0.088,0.007-0.132,0.014
							c-0.202,0.021-0.41,0.035-0.617,0.05c-0.227,0.014-0.466,0.021-0.699,0.021h-58.544c-0.233,0-0.472-0.007-0.699-0.021
							c-0.208-0.014-0.416-0.028-0.617-0.05c-0.044-0.007-0.088-0.007-0.132-0.014c-0.208-0.028-0.416-0.057-0.617-0.092
							c-0.013,0-0.025,0-0.038-0.007c-0.158-0.028-0.309-0.057-0.46-0.092c-0.094-0.014-0.195-0.036-0.29-0.064
							c-0.416-0.099-0.831-0.22-1.234-0.362c-0.208-0.078-0.409-0.156-0.611-0.241c-0.46-0.184-0.9-0.397-1.335-0.646
							c-0.164-0.085-0.327-0.184-0.485-0.284c-0.189-0.114-0.372-0.227-0.548-0.355c-0.762-0.518-1.48-1.121-2.135-1.795
							c-0.145-0.149-0.29-0.298-0.428-0.454c-0.025-0.028-0.057-0.064-0.076-0.092c-0.151-0.163-0.29-0.326-0.422-0.497
							c-0.252-0.305-0.485-0.617-0.705-0.944c-0.082-0.113-0.157-0.234-0.233-0.348c-0.038-0.064-0.082-0.121-0.113-0.184
							c-0.113-0.17-0.214-0.341-0.315-0.518c-0.069-0.113-0.139-0.227-0.195-0.348c-0.139-0.248-0.265-0.504-0.391-0.759
							l10.87-54.552c0-8.493,6.166-15.445,13.71-15.445h33.542c7.545,0,13.71,6.953,13.71,15.445L297.351,272.765z"/>
						<g>
							<rect x="229.606" y="2.122" style="fill:#4F5559;" width="1.679" height="196.604"/>
							<rect x="279.988" y="2.122" style="fill:#4F5559;" width="1.679" height="196.604"/>
						</g>
					</g>
				</g>
				<g>
					<g>
						<rect x="372.71" y="229.856" style="fill:#3D4347;" width="17.382" height="188.903"/>
						<polygon style="opacity:0.1;fill:#040000;" points="404.821,280.789 404.821,280.931 390.092,280.931 390.092,301.364 
							372.71,301.364 372.71,280.931 363.437,280.931 363.437,280.789 						"/>
					</g>
					<g>
						<path style="fill:#3D4347;" d="M427.121,0v265.458c0,2.645-0.641,5.13-1.603,7.293c-0.16,0.241-0.321,0.561-0.401,0.802
							c-0.08,0.08-0.161,0.24-0.241,0.321c-0.08,0.16-0.16,0.321-0.32,0.481c0,0.08-0.08,0.161-0.08,0.241
							c-0.08,0.08-0.16,0.24-0.241,0.32c-0.24,0.321-0.481,0.641-0.721,0.962c-0.08,0.16-0.241,0.321-0.401,0.481l-0.08,0.08
							c-0.16,0.16-0.321,0.32-0.401,0.481c-0.16,0.16-0.32,0.321-0.561,0.481c-0.561,0.481-1.042,0.882-1.603,1.283
							c-0.16,0.16-0.321,0.24-0.561,0.401c-0.16,0.08-0.32,0.16-0.481,0.24c-0.401,0.241-0.881,0.481-1.362,0.641
							c-0.16,0.08-0.401,0.16-0.561,0.241c-0.401,0.16-0.802,0.32-1.283,0.401c-0.08,0-0.16,0-0.24,0.08c-0.16,0-0.321,0-0.481,0.08
							c-0.241,0-0.481,0.08-0.641,0.08c-0.08,0-0.08,0-0.16,0c-0.16,0-0.401,0.08-0.561,0.08h-59.952c-0.24,0-0.481-0.08-0.641-0.08
							c-0.08,0-0.08,0-0.16,0c-0.16,0-0.401-0.08-0.561-0.08c-0.08,0-0.08,0-0.08,0c-0.16-0.08-0.32-0.08-0.481-0.08
							c-0.08-0.08-0.16-0.08-0.241-0.08c-0.401-0.08-0.882-0.241-1.282-0.401c-0.161-0.08-0.401-0.16-0.561-0.241
							c-0.481-0.16-0.882-0.401-1.362-0.641c-0.16-0.08-0.321-0.16-0.481-0.24c-0.16-0.16-0.401-0.241-0.561-0.401
							c-0.561-0.321-1.042-0.802-1.523-1.283c-0.241-0.16-0.401-0.32-0.561-0.481l-0.481-0.481c0,0,0-0.08-0.08-0.08
							c-0.16-0.16-0.24-0.32-0.401-0.481c-0.241-0.32-0.481-0.641-0.722-0.962c-0.08-0.08-0.16-0.24-0.24-0.32
							c0-0.08-0.08-0.16-0.08-0.241c-0.08-0.16-0.24-0.32-0.32-0.481c-0.08-0.08-0.161-0.24-0.161-0.321
							c-0.16-0.241-0.32-0.561-0.401-0.802c-1.042-2.164-1.683-4.648-1.683-7.293V0H427.121z"/>
						<path style="fill:#4F5559;" d="M425.48,272.765c-0.126,0.255-0.252,0.511-0.391,0.759c-0.057,0.121-0.126,0.234-0.195,0.348
							c-0.101,0.177-0.202,0.348-0.315,0.518c-0.031,0.064-0.076,0.121-0.113,0.184c-0.076,0.114-0.151,0.234-0.233,0.348
							c-0.22,0.326-0.453,0.639-0.706,0.944c-0.132,0.17-0.271,0.333-0.416,0.497c-0.025,0.028-0.057,0.064-0.082,0.092
							c-0.139,0.156-0.283,0.305-0.428,0.454c-0.655,0.674-1.373,1.277-2.135,1.795c-0.176,0.128-0.359,0.241-0.548,0.355
							c-0.157,0.099-0.321,0.199-0.485,0.284c-0.435,0.248-0.875,0.461-1.335,0.646c-0.202,0.085-0.403,0.163-0.611,0.241
							c-0.403,0.142-0.819,0.263-1.234,0.362c-0.095,0.028-0.195,0.05-0.29,0.064c-0.151,0.035-0.302,0.064-0.46,0.092
							c-0.013,0.007-0.025,0.007-0.038,0.007c-0.202,0.036-0.41,0.064-0.617,0.092c-0.044,0.007-0.088,0.007-0.132,0.014
							c-0.202,0.021-0.409,0.035-0.617,0.05c-0.227,0.014-0.466,0.021-0.699,0.021h-58.544c-0.233,0-0.472-0.007-0.699-0.021
							c-0.208-0.014-0.416-0.028-0.617-0.05c-0.044-0.007-0.088-0.007-0.132-0.014c-0.208-0.028-0.416-0.057-0.617-0.092
							c-0.013,0-0.025,0-0.038-0.007c-0.158-0.028-0.309-0.057-0.46-0.092c-0.094-0.014-0.195-0.036-0.29-0.064
							c-0.416-0.099-0.831-0.22-1.234-0.362c-0.208-0.078-0.409-0.156-0.611-0.241c-0.46-0.184-0.901-0.397-1.335-0.646
							c-0.164-0.085-0.327-0.184-0.485-0.284c-0.189-0.114-0.372-0.227-0.548-0.355c-0.762-0.518-1.48-1.121-2.135-1.795
							c-0.145-0.149-0.29-0.298-0.428-0.454c-0.025-0.028-0.057-0.064-0.076-0.092c-0.151-0.163-0.29-0.326-0.422-0.497
							c-0.252-0.305-0.485-0.617-0.705-0.944c-0.082-0.113-0.158-0.234-0.233-0.348c-0.038-0.064-0.082-0.121-0.113-0.184
							c-0.113-0.17-0.214-0.341-0.315-0.518c-0.069-0.113-0.139-0.227-0.195-0.348c-0.138-0.248-0.265-0.504-0.391-0.759
							l10.87-54.552c0-8.493,6.166-15.445,13.71-15.445H400.9c7.545,0,13.71,6.953,13.71,15.445L425.48,272.765z"/>
						<g>
							<rect x="357.735" y="2.122" style="fill:#4F5559;" width="1.679" height="196.604"/>
							<rect x="408.117" y="2.122" style="fill:#4F5559;" width="1.679" height="196.604"/>
						</g>
					</g>
				</g>
			</g>
		</g>
	</g>
	<polygon style="opacity:0.04;fill:#040000;" points="512,9.698 512,456.697 27.652,456.697 65.563,418.785 116.459,367.89 
		133.851,350.497 213.761,270.587 215.444,268.984 220.894,263.454 357.711,126.637 359.394,124.954 408.125,76.223 409.808,74.54 
		427.121,57.227 474.65,9.698 	"/>
</g>
</svg>